<?xml version="1.0" encoding="utf-8"?>
<!-- Generator: Adobe Illustrator 25.3.1, SVG Export Plug-In . SVG Version: 6.00 Build 0)  -->
<svg version="1.1" id="Layer_1" xmlns="http://www.w3.org/2000/svg" xmlns:xlink="http://www.w3.org/1999/xlink" x="0px" y="0px"
	 viewBox="0 0 156 58.5" style="enable-background:new 0 0 156 58.5;" xml:space="preserve">
<style type="text/css">
	.st0{fill:#C8C8C8;}
</style>
<desc>Created with Sketch.</desc>
<g>
	<g>
		<path class="st0" d="M19.5,22h56.7l-1.5,7.6H18L19.5,22z M24.4,1.9h54.9l-1.5,7.6h-6.1l-0.6,3.2h6.1L75.7,20H20.8l1.4-7.3h6.4
			l0.6-3.2h-6.4L24.4,1.9z M18.5,31.6h54.9l-3.2,16.2H25.8l-0.4,2.2h44.4l-1.5,7.4H13.3l3.2-16.2h44.4l0.4-2.1H17L18.5,31.6z
			 M40.7,12.7H59l0.6-3.2H41.3L40.7,12.7z"/>
		<path class="st0" d="M85,1.9h31.5l-3.6,18.3H91.9l-0.6,3h20.9l-1.5,7.6H79.3l3.6-18.3h20.9l0.6-2.9H83.5L85,1.9z M79.4,34H90
			l-0.6,3.1h33.5l0.6-3.1h10.6l-4.6,23.5H74.8L79.4,34z M87,49.2h33.5l0.8-4H87.8L87,49.2z M129.1,10.4l-6.3,20.4l0,0h-9.7L119,1.1
			h9.7l-3.6,18.3L131,1.1l0,0h9.7l-5.9,29.7h-9.7L129.1,10.4z"/>
	</g>
	<g>
		<path class="st0" d="M144.5,2.3h-1.6V1.1h4.6v1.3H146v6h-1.5V2.3z"/>
		<path class="st0" d="M148.3,8.3V1.1h2l1.9,5.2l1.8-5.2h2v7.3h-1.4l0-5.8l-2,5.8h-1l-2.1-5.8l0,5.8H148.3z"/>
	</g>
</g>
</svg>
